<svg xmlns="http://www.w3.org/2000/svg" xmlns:xlink="http://www.w3.org/1999/xlink" viewBox="0 0 110 30" fill="#fff" fill-rule="evenodd" stroke="#000" stroke-linecap="round" stroke-linejoin="round"><use xlink:href="#B" x=".5" y=".5"/><defs><linearGradient id="A" x1="-0.00%" y1="50.00%" x2="100.00%" y2="50.00%"><stop offset="0%" stop-color="#7acbbf"/><stop offset="100%" stop-color="#3ea4db"/></linearGradient></defs><symbol id="B" overflow="visible"><g stroke="none"><path d="M36.384 22.615l1.26-1.876c2.857 1.202 5 .16 5.458-2.548-.824.3-1.638.708-2.5.9-3.187.67-6.163-1.643-5.728-5.266.34-2.84 2.548-5.366 5.693-5.977 1.617-.315 3.16.027 4.412 1.295l.33-1.142h1.918l-.283 1.85-1.52 8.467c-.274 1.428-.92 2.7-2.02 3.68-1.688 1.505-3.616 2.022-5.798 1.246-.403-.144-.768-.395-1.2-.628zm.825-8.546c.005 1.562 1.148 2.97 3.214 2.753 1.318-.137 2.282-.885 3.03-1.925.652-.908.778-1.9.405-2.972-.368-1.047-1.337-1.83-2.4-1.857-2.352-.058-4.237 2.022-4.237 4zm28.73 9.286l-.5.066-1.592.003c-.105-.927 1.64-11.368 2.562-15.422l.9-.04c.313-.007.627-.002 1.03-.002l-.17 1.136c.565-.3 1.06-.595 1.58-.835a5.38 5.38 0 0 1 3.796-.296c2.337.646 3.73 2.96 3.26 5.373-.623 3.2-2.608 5.03-5.696 5.76-1.3.305-2.516.05-3.633-.676-.156-.1-.298-.223-.547-.412l-.972 5.346zm8.52-10.4c-.01-1.68-1.264-2.95-2.884-2.84-1.8.12-3.213 1.294-3.72 2.814-.498 1.5-.115 2.594.84 3.35.744.6 1.6.68 2.5.496 1.75-.348 3.264-2.1 3.256-3.82zM63.406 18.99h-1.902v-1.027c-.74.336-1.424.737-2.163.966-1.843.572-3.596.356-5.02-1.03-1.45-1.412-1.774-3.177-1.184-5.08.842-2.715 2.735-4.375 5.47-4.97 1.42-.308 2.845-.095 4.023.923.14.12.298.22.47.35l.258-1.13h1.977L63.404 18.99zm-1.278-6.105c-.024-1.773-1.468-3.102-3.18-2.804-2.087.363-3.8 1.95-3.617 4.385.076 1.02.893 2.036 1.884 2.27 2.667.628 4.984-1.703 4.913-3.85zm46.696 1.365h-8.723c-.07 1.477 1.023 2.6 2.6 2.685 1.093.067 2.036-.363 2.938-.915l.78-.523 1.07 1.67c-1.938 1.592-4.033 2.434-6.516 1.84-2.128-.508-3.65-2.84-3.357-5.116.338-2.625 1.718-4.502 4.134-5.6 1.36-.623 2.774-.714 4.167-.27 1.684.538 2.616 1.804 2.897 3.662.12.8.02 1.634.02 2.578zm-8.407-1.952h6.138c-.097-1.23-.7-2.005-1.8-2.375-1.663-.57-3.804.6-4.347 2.375zm-21.595 6.688h-2.335l2.695-15.358h2.342l-.827 4.84.98-.42c2.1-.786 4.774.013 5.428 2.5.18.685.2 1.458.1 2.165l-.962 5.7c-.033.185-.112.36-.183.584h-2.236l.232-1.695.875-4.753c.27-1.497-1.103-2.736-2.57-2.36-1.702.436-2.323 1.664-2.563 3.26l-.965 5.547zM93.51 4.423l1.837.004c.122.002.243.05.445.097l-.575 3.402h3.36c.328.7-.152 1.274-.08 2-1.182.27-2.356.016-3.612.165l-.336 1.5-.6 3.452c-.108.624.1 1.124.776 1.573l2.453.222-.354 2.2c-1.04-.04-2.03.1-3.038-.146-1.586-.388-2.354-1.64-2.2-3.28.096-1.097.33-2.184.52-3.272l1.083-6.057.34-1.846zM50.493 8.496c1.2-.667 2.496-.562 3.887-.505l-.394 2.115-1.527.12c-1.305.088-2.16.725-2.453 1.985l-.763 4-.47 2.755h-2.15c-.054-.827 1.284-8.843 1.842-11.003.5 0 1.03-.015 1.56.014.1.005.2.187.285.287l-.1.476.293-.243zm39.035 10.51h-2.292c.56-3.703 1.274-7.33 1.9-11.005h2.304l-1.922 11.005z" fill="#272324"/><path d="M92.177 5.478c-.39 1.23-1.02 1.758-1.9 1.626-.6-.1-.95-.48-.976-1.086-.033-.75.54-1.502 1.27-1.665.776-.175 1.24.138 1.605 1.126z" fill="#272425"/><path d="M37.457 5.383l-3.879-.573-1.404-1.659 2.077-1.011 3.441.446 1.778 1.572zm-8.935-2.807l-.949-1.364L29.664.37l3.044.37 1.273 1.3-2.079 1.001zm-2.634 1.077l-3.332-.491-.577-1.437L24.36.841l3.007.389.936 1.367zm-6.26.637l-3.273-.516-.17-1.517 2.693-.928 2.962.41.568 1.438zm.259 1.965l-3.342 1.459-3.666-.687.075-1.968 3.196-1.186 3.283.524zM6.815 18.844l-4.788-1.388 1.245-3.78 4.927-2.162 4.175.957-.168 3.494zm5.524-2.641l5.013 1.292.467 4.811-5.928 4.098-5.947-2 .974-5.28zm9.85-1.454l5.162 1.184 1.718 4.385-4.557 3.698-6.195-1.798-.524-4.792zm.175-.213l-.831-3.228 3.465-1.872 4.4.829 1.62 2.999-3.517 2.44zm2.541-5.244l-.923-2.322 2.858-1.382 3.829.612 1.484 2.181-2.875 1.732zm6.869-6.155l1.371 1.656-2.417 1.292-3.813-.606-.953-1.749 2.42-1.063zM24.65 9.325l-3.476 1.855-4.279-.884-.258-2.482 3.35-1.471 3.762.651zm-2.261-6.067l3.342.496.935 1.753-2.858 1.372-3.747-.645-.465-1.855z" fill="url(#A)"/><g fill="#000" fill-rule="nonzero"><path d="M12.087 24.588c-1.175.214-2.212 1.236-2.3 2.327-.103 1.147.86 1.9 2.146 1.656 1.27-.252 2.285-1.4 2.277-2.496-.008-1.052-.95-1.7-2.113-1.488zm.398-9.664c-.9.13-1.696.74-1.754 1.386-.06.67.684 1.1 1.657.962.966-.147 1.74-.8 1.734-1.462-.005-.626-.735-1.015-1.637-.886zm-4.458 2.813c-.803-.224-1.956.154-2.607.865-.677.74-.568 1.567.278 1.826.857.26 2.093-.176 2.726-.95.607-.745.416-1.513-.397-1.74zm10.844 3.02c-.944-.263-2.076.18-2.556 1.018-.5.874-.118 1.856.9 2.164s2.232-.208 2.667-1.128c.417-.88-.044-1.787-1-2.054z"/><path d="M18.31 16.942l-5.8-1.462-6.29 3.33-1.277 6.235 7.1 2.44 6.98-4.953zm-6.214 8.887l-5.463-1.8.824-4.85 5.012-2.726 4.664 1.2.403 4.45z"/><path d="M7.887 23.235c-.45-.705-1.662-.762-2.75-.13-1.12.65-1.738 1.814-1.334 2.605.42.82 1.747.9 2.916.15 1.132-.716 1.633-1.892 1.167-2.623zm11.072-6.707c-.538-.5-1.573-.54-2.344-.1-.8.46-1.035 1.273-.513 1.822.538.565 1.657.612 2.465.1.786-.497.947-1.32.392-1.832zm-10.55-5.926c-.804.098-1.55.56-1.663 1.045-.118.5.48.83 1.333.718.848-.1 1.587-.606 1.655-1.094.066-.473-.526-.766-1.325-.67zm-4.13 2.1c-.672-.165-1.695.115-2.312.64-.638.544-.6 1.148.092 1.335.7.2 1.798-.13 2.406-.694.587-.547.493-1.114-.185-1.28z"/><path d="M8.371 11.023l-5.747 2.484-1.56 4.478 5.7 1.7 6.375-3.478.085-4.08zm3.57 4.867l-4.967 2.637-4.413-1.267 1.103-3.5 4.57-2.023 3.886.898z"/><path d="M3.681 16.704c-.32-.502-1.34-.542-2.306-.1-1 .462-1.592 1.283-1.3 1.836.3.57 1.4.618 2.423.102 1.005-.502 1.524-1.33 1.194-1.847zm10.143-4.898c-.403-.374-1.294-.403-2.014-.067-.736.344-1.04.95-.655 1.355.395.416 1.348.45 2.103.073.737-.368.98-.978.566-1.36zM26.617 23.71c-.286-.947-1.354-1.53-2.404-1.338-1.06.193-1.77 1.112-1.57 2.093.2 1.027 1.327 1.7 2.476 1.482 1.138-.226 1.8-1.245 1.5-2.236zm-2.82-9.323c-.175-.577-.983-.935-1.816-.816-.84.12-1.43.682-1.308 1.276.126.615.96 1.02 1.854.883.887-.135 1.45-.745 1.27-1.343zm5.87 4.523c-.972-.24-1.936.165-2.174.926-.247.793.378 1.68 1.42 1.96 1.056.28 2.07-.188 2.246-1.02.17-.798-.507-1.62-1.492-1.864z"/><path d="M28.122 15.426l-5.967-1.342-5.131 3.056.504 5.657 7.393 2.19 5.335-4.462zm-3.57 8.074l-5.685-1.63-.546-4.402 4.06-2.498 4.803 1.11 1.563 4.055z"/><path d="M28.635 15.046c-.65-.46-1.655-.494-2.275-.083-.636.422-.652 1.168-.006 1.67.666.517 1.75.56 2.4.092.622-.456.56-1.208-.108-1.68zm-2.39-5.8c-.184-.413-.893-.67-1.6-.583s-1.16.5-1.012.912c.15.435.882.72 1.623.624s1.17-.527.98-.952zm-4.352 1.264c-.715-.143-1.524.1-1.82.555-.307.47.04 1 .8 1.15.76.162 1.606-.112 1.876-.6.26-.472-.124-.962-.846-1.107zm9.488 1.9c-.814-.163-1.594.114-1.755.63-.167.535.385 1.13 1.247 1.314.87.186 1.684-.127 1.8-.684.114-.538-.47-1.097-1.293-1.26z"/><path d="M29.949 9.99l-5.11-.95-4.063 2.157.892 3.83 6.125 1.424 4.138-2.948zm-2.54 5.494l-4.73-1.07-.8-2.988 3.213-1.753 4.1.78 1.478 2.79z"/><path d="M30.364 9.71c-.568-.325-1.418-.35-1.92-.057-.512.3-.486.824.082 1.175.582.36 1.488.388 2 .063.502-.32.42-.848-.163-1.18zm-9.117-3.548c-.098-.326-.687-.53-1.322-.46s-1.105.4-1.038.722c.07.342.672.565 1.34.5s1.12-.415 1.02-.75zm-4.043.988c-.612-.112-1.36.08-1.684.434-.333.364-.098.767.54.9.643.125 1.424-.087 1.73-.464.3-.366.03-.748-.586-.86z"/><path d="M24.404 6.748l-4.374-.746-3.91 1.694.253 2.932 5.1 1.065 4.075-2.227zm-3.122 4.222l-3.945-.806-.278-2.29 3.097-1.372 3.5.61.826 2.158z"/><path d="M18.054 9.804c-.426-.326-1.264-.35-1.893-.058-.642.3-.844.827-.43 1.18.425.36 1.317.4 1.97.063.64-.32.788-.85.352-1.185zm6.765-3.267a2.05 2.05 0 0 0-1.691-.044c-.503.235-.566.647-.123.92.453.28 1.246.3 1.753.047.498-.25.518-.663.06-.924zm3.235-1.127c-.182-.308-.8-.5-1.4-.434s-.97.366-.815.68c.16.322.805.53 1.435.46s.976-.4.8-.705zm4.534 2.315c-.697-.117-1.35.083-1.465.455-.12.383.37.805 1.1.935.74.13 1.413-.1 1.497-.487s-.43-.784-1.132-.903z"/><path d="M31.276 5.962l-4.45-.7-3.34 1.593 1.04 2.74 5.204.99 3.358-2.076zM29.364 9.91l-4.03-.75-.888-2.142 2.637-1.29 3.564.572 1.37 2.022z"/><path d="M31.624 5.763c-.502-.24-1.236-.258-1.655-.04-.427.22-.378.608.124.865.513.262 1.3.283 1.715.045s.328-.623-.184-.868zm-2.2-3.21c-.176-.24-.74-.387-1.266-.336s-.834.285-.68.528c.16.248.738.4 1.287.354s.838-.3.657-.545zm-3.166.718c-.554-.08-1.133.058-1.3.313-.17.262.15.55.727.635s1.178-.063 1.328-.33-.195-.537-.754-.618zm7.23 1.046c-.6-.088-1.172.064-1.26.345-.1.288.35.605.986.7.643.097 1.22-.07 1.282-.366s-.393-.6-1-.68z"/><path d="M32.281 2.97l-3.95-.54-2.833 1.23 1.086 2.067 4.53.73 2.827-1.547zm-1.508 2.988l-3.518-.556-.907-1.618 2.236-.99 3.156.44 1.266 1.538z"/><path d="M27.754 5.15a2.07 2.07 0 0 0-1.605-.04c-.45.2-.46.577-.01.82.46.25 1.2.268 1.66.042.443-.222.416-.6-.045-.824zm4.824-2.335c-.45-.186-1.097-.2-1.457-.03-.366.17-.307.47.145.666.46.2 1.138.216 1.503.033s.268-.48-.2-.668zm-16.446.547c-.585.056-1.05.316-1.035.587.015.277.525.456 1.137.395s1.064-.336 1.023-.607c-.04-.265-.542-.43-1.125-.374zM13.49 4.536c-.534-.1-1.23.065-1.563.35-.343.293-.182.614.37.712.558.1 1.28-.07 1.604-.37.315-.294.126-.6-.412-.7z"/><path d="M20.008 4.2l-3.82-.602-3.734 1.37-.14 2.324 4.35.828 3.933-1.747zm-3.405 3.355l-3.38-.63.046-1.818 2.96-1.106 3.052.5.407 1.723z"/><path d="M13.903 6.641c-.336-.258-1.077-.277-1.672-.044-.606.237-.848.65-.524.926.33.28 1.115.303 1.733.048.606-.25.806-.667.464-.93zm6.52-2.612c-.362-.207-1.033-.222-1.512-.035-.488.2-.605.522-.25.743.363.225 1.07.242 1.562.038.485-.2.568-.534.2-.745zm-.674-2.8c-.062-.2-.526-.34-1.038-.295s-.9.25-.857.463.515.358 1.05.3.9-.264.846-.477zm-3.254.63c-.483-.07-1.08.05-1.34.273-.267.228-.086.477.413.552s1.12-.055 1.37-.288.043-.467-.443-.538zm6.272.906c-.53-.076-1.115.056-1.317.3-.207.25.062.522.6.605s1.158-.06 1.345-.316c.183-.25-.106-.5-.638-.6z"/><path d="M22.224 1.594l-3.45-.472-3.156 1.075.152 1.788 3.877.623 3.277-1.33zm-2.683 2.59l-3.018-.477-.168-1.4 2.5-.866 2.75.383.5 1.335z"/><path d="M22.569 1.46c-.34-.163-.936-.175-1.345-.027-.415.15-.488.4-.153.582.34.175.966.187 1.384.028.412-.157.458-.42.114-.583zm2.73-.725c-.12-.2-.608-.323-1.096-.28s-.8.238-.7.44.602.34 1.1.294.816-.25.695-.455z"/><path d="M27.827 1.082l-3.5-.45-2.786 1.023.646 1.694 3.95.59 2.832-1.26zm-1.912 2.455l-3.073-.45-.552-1.327 2.2-.823 2.794.364.86 1.267z"/><path d="M28.127.954a2.03 2.03 0 0 0-1.322-.025c-.36.14-.365.4.01.553.38.165.994.178 1.36.027.36-.15.334-.397-.047-.554zm2.357-.68c-.168-.2-.68-.3-1.148-.268s-.73.228-.578.42.68.324 1.165.28.733-.24.56-.433zm3.672 1.4c-.543-.07-1.035.05-1.103.27s.326.47.9.544 1.07-.054 1.12-.284-.36-.46-.907-.53z"/><path d="M33.047.605L29.503.177l-2.454.975 1.08 1.6 4.007.558 2.438-1.195zm-1.23 2.335L28.7 2.513l-.89-1.262 1.936-.784 2.83.347 1.17 1.206z"/><path d="M33.307.483c-.407-.147-.985-.158-1.3-.024s-.255.37.154.527c.415.157 1.018.17 1.337.025s.224-.38-.2-.528zm5.13 4.804c-.314-.305-1.024-.494-1.595-.43s-.8.363-.52.673c.298.32 1.033.526 1.632.455s.807-.386.484-.7zm1.017-1.617c-.618-.084-1.126.06-1.14.326-.014.272.493.57 1.138.662.65.092 1.17-.065 1.156-.345-.013-.273-.532-.56-1.154-.643z"/><path d="M37.934 2.394l-3.994-.512-2.443 1.166 1.6 1.953 4.595.687 2.358-1.46zm-.705 2.825l-3.566-.523-1.306-1.53 1.922-.94 3.193.416 1.625 1.455z"/><path d="M38.186 2.248c-.487-.176-1.122-.19-1.43-.03s-.178.445.312.63c.5.2 1.166.205 1.474.032s.14-.454-.357-.633z"/></g></g></symbol></svg>